# xmcd
#
# Track frame offsets:
#	150
#	15263
#	32796
#	46286
#	59396
#	82297
#	95429
#	110425
#	128648
#	146075
#	161629
#	176356
#
# Disc length: 2481 seconds
#
# Revision: 0
# Processed by: cddbd v1.5.2PL0 Copyright (c) Steve Scherf et al.
# Submitted via: audiograbber 1.83.01
#
DISCID=9a09af0c
DTITLE=Nana Mouskouri - Wenn ich träum...
DYEAR=1980
DGENRE=Folk
TTITLE0=Was War, Das Bleibt
TTITLE1=Mama, Lass Den Tiger Raus 
TTITLE2=Wenn Ich Träum... 
TTITLE3=Schiffe, Die Sich Nachts Begegnen
TTITLE4=Das Fest
TTITLE5=Bluhen Und Welken
TTITLE6=Des Einen Freud Ist Des Andern Leid
TTITLE7=La Provence (Du Blühendes Land) 
TTITLE8=Venedig Im Regen
TTITLE9=Darum Bin Ich Noch Bei Dir
TTITLE10=Schlag Nicht So Laut, Mein Herz
TTITLE11=Adieu, Mein Kleiner Gardeoffizier
EXTD=
EXTT0=
EXTT1=
EXTT2=
EXTT3=
EXTT4=
EXTT5=
EXTT6=
EXTT7=
EXTT8=
EXTT9=
EXTT10=
EXTT11=
PLAYORDER=
